<?xml version="1.0"?><svg version="1.2" baseProfile="tiny-ps" viewBox="0 0 300 300" xmlns="http://www.w3.org/2000/svg" xmlns:xlink="http://www.w3.org/1999/xlink"><title>Oriontec</title><g><g fill="#fafafb" transform="matrix(.1 0 0 -.1 0 300)"><path d="M0 1500V0h3000v3000H0V1500z"/></g><g fill="#d5d5d5" transform="matrix(.1 0 0 -.1 0 300)"><path d="M0 1500V0h3000v3000H0V1500zm503 258 11-16-13-16-13-16h-47l-6 20-7 21 13 15 12 15 20-3c11-2 25-10 30-20zm-100-79c40-23 82-48 94-55l23-14-12-25c-6-14-15-25-20-25-16 0-188 101-188 111s22 49 28 49c2 0 36-19 75-41zm227-79v-110h-60v220h60v-110zm-396 34 16-6v-59l-16-6-17-6-16 10c-9 6-18 18-20 28l-3 19 18 13c21 15 18 15 38 7zm500 0 16-6v-59l-16-6-17-6-16 10c-9 6-18 18-20 28l-3 19 18 13c21 15 18 15 38 7zm329-94 27-30v-45c0-24-4-55-10-69l-10-26-32-20-33-20h-72l-27 21c-14 11-34 35-42 52l-16 30 5 40 5 39 28 29 28 30 31 8 30 8 30-8 30-9 28-30zm244 24 25-25-6-31c-3-18-9-34-12-37s-33-8-67-11l-62-5-3-62-3-63h-19v260h121l26-26zm158 16 6-10-15-6-16-6v-201l18-13 17-13-42-1h-43v10c0 6 7 10 15 10h15v208l-16 6-15 6 6 10 6 10h58l6-10zm276-36 28-26 6-38 6-37-14-34c-8-19-24-43-37-54l-22-20h-106l-26 24-25 24-12 35-11 35 11 36 11 37 24 23c13 12 36 26 52 30l29 8 29-8c16-5 42-20 57-35zm574 31v-10l-42-3-42-3-3-111-3-111-12-5-13-4v232h-89l-5 9c-3 4-2 11 1 15l7 7 100-3 101-3v-10zm199 6 6-9-16-6c-9-3-36-6-60-6h-44v-90h122l-4-12-5-13-56-3-57-3v-89h120v-21l-72 3-73 3-3 105c-2 58 0 115 3 128l5 22h129l5-9zm-566-116c51-63 92-120 92-126v-11l-15 12c-8 7-45 50-81 96-37 46-71 84-75 84h-9v-180h-20v240h8c5 0 50-52 100-115zm102 30v-85h-20v170h20v-85zm714 64 9-8-51 2-51 2-30-29-31-30v-88l29-29 29-29h32c17 0 40 5 52 11l20 11 6-7 7-7-19-14-20-14h-73l-34 23-33 22-12 40-11 40 8 29c11 39 46 75 83 85l31 9 25-5c14-3 29-9 34-14zm-2383-10 11-21-9-8c-11-12-186-111-188-108-1 2-8 14-15 27l-12 23 9 8c15 15 168 99 180 100 7 0 17-9 24-21zm374-78 15-29-38-23c-20-12-64-37-98-55l-61-34-12 27c-6 14-9 28-6 31 5 5 175 109 182 111 1 1 9-12 18-28zm-385-161v-110h-60v220h60v-110zm924 67 29-37-7-7-7-8-34 40c-19 22-34 44-35 48 0 17 24 0 54-36zm-1056-39c7-7 12-22 12-35v-24l-16-6-17-6-16 10c-9 6-17 18-19 27l-4 17 12 14c15 18 32 19 48 3zm295-34c45-26 87-51 94-56l12-10-11-24c-6-13-15-24-20-24-8 0-175 95-187 106-5 4 20 54 26 54 2 0 41-21 86-46zm205 34c7-7 12-22 12-34v-23l-20-6-21-7-14 12c-26 22-12 70 20 70 6 0 16-5 23-12zm-238-159 11-20-12-15-11-14h-47l-6 20-7 21 12 14c7 8 21 15 31 15h18l11-21zm403 346-36-36 6-42 6-42 31-27 30-28h26c32 0 64 16 86 44l18 21v87l-29 29-29 29h-74l-35-35zm277-5v-40h107l10 23 11 23-10 17-9 17h-109v-40zm415 18-25-23-9-30-8-30 9-32 8-32 26-20 27-21h63l23 16 23 17 15 34 14 35-11 34-11 34-26 20-26 20h-66l-26-22z"/></g><g fill="#9a9a9b" transform="matrix(.1 0 0 -.1 0 300)"><path d="M0 1500V0h3000v3000H0V1500zm494 274c9-8 16-24 16-35v-19l-25-12-24-11-16 13-15 12v47l18 10c23 14 28 14 46-5zm-36-122 62-36v-12c0-6-8-21-17-33l-18-20-95 56c-52 31-97 57-98 59-2 1 4 16 14 33l18 31 36-21c19-12 63-38 98-57zm172-52v-120h-70v240h70v-120zm-376 18 11-18-11-17-11-18h-58l-3 29-4 29 14 8c19 13 49 6 62-13zm500 0 11-18-11-17-11-18h-58l-3 23-4 23 13 15 12 15 20-3c11-2 25-11 31-20zm275-46 34-19 19-34 18-34v-62l-23-34-22-34-38-18-37-19-42 14-42 13-23 34-23 34v78l15 30 16 30 32 19 32 20h25c14 0 41-8 59-18zm279 2 22-15v-69l-20-20-20-20h-109l-3-62-3-63-10 2-10 3-3 117c-1 64 0 123 2 130l5 13h127l22-16zm162 1v-15h-30v-201l15-5c8-4 15-12 15-20v-14h-80v15c0 8 5 15 10 15h10v210h-10c-5 0-10 7-10 15v15h80v-15zm235 1 35-15 20-33 20-33v-76l-14-28c-17-32-48-55-88-65l-27-6-40 16-41 16-20 33-20 32v76l20 32 20 33 33 16c40 19 58 20 102 2zm249-112 99-125-10-10-10-10-77 95c-42 52-81 98-86 101l-10 6v-193l-12 4-13 5-3 113c-3 113 0 140 15 140 4-1 52-57 107-126zm96 36v-90h-20v180h20v-90zm270 75v-15h-89l-3-117-3-116-12-5-13-4v242h-100v30h220v-15zm200 0v-15h-120v-90h120v-30h-121l3-42 3-43 58-3 58-3-4-12-4-12h-138l-3 133-3 132h151v-15zm-2137-24 17-29-96-56c-53-31-100-56-105-56s-15 13-24 29l-15 29 98 56c53 30 99 55 102 56 3 0 13-13 23-29zm2365 23 22-6v-29l-35 7-35 6-25-6-26-7-19-32-20-32v-57l35-35 36-36 32 6c17 4 43 9 56 13l24 7-5-14-5-14-36-14-37-14-45 18-46 17-19 39c-24 46-25 68-6 114l15 35 33 20 33 20h25c14 0 35-3 48-6zM760 1470c7-17 11-32 9-34s-46-27-98-57l-93-53-19 25c-10 13-17 28-16 32 3 10 178 115 193 116l12 1 12-30zm-390-160v-120h-70v113c0 63 3 117 7 120 3 4 19 7 35 7h28v-120zm929 69 33-41-9-9-10-10-36 41c-39 42-46 60-24 60h14l32-41zm-716-99c31-17 57-36 57-42 0-8-17-47-26-56-2-3-188 101-202 114-2 1 4 16 14 33l18 31 41-24c22-13 66-38 98-56zm-329 48 11-18-11-17-11-18h-58l-3 29-4 29 14 8c19 13 49 6 62-13zm500 0 11-18-11-17-11-18h-58l-3 23-4 23 13 15 12 15 20-3c11-2 25-11 31-20zm-260-134c9-8 16-24 16-35v-19l-25-12-24-11-16 13-15 12v47l18 10c23 14 28 14 46-5zm434 350c-35-18-48-43-48-89v-36l16-24 16-24 32-11 33-11 25 10c14 5 35 22 47 37l21 27v69l-34 34-34 34h-23c-13-1-36-7-51-16zm252-24v-41l51 3 52 3 11 18 11 17-11 18-11 17-52 3-51 3v-41zm435 28c-11-6-28-20-37-32l-18-21v-73l25-30 25-30 25-6 26-7 33 16 33 16 12 25c6 14 11 39 11 57v32l-18 21c-33 41-78 54-117 32z"/></g><g fill="#5c5c5c" transform="matrix(.1 0 0 -.1 0 300)"><path d="M0 1500V0h3000v3000H0V1500zm498 278c29-29 7-78-35-78h-23l-12 25-11 25 18 20c20 23 45 26 63 8zm-70-104c54-31 98-58 100-59 7-6-29-65-39-65-12 0-199 110-199 117 0 9 31 63 36 63 3 0 49-25 102-56zm212-74v-120h-80v240h80v-120zm-382 3 3-32-21-11-21-11-25 16c-27 17-29 27-13 56l10 20 32-3 32-3 3-32zm496 21c3-9 6-24 6-34v-19l-21-11-20-11-25 16-24 15v18c0 10 5 23 12 30l12 12h54l6-16zm277-49 30-16 19-32 20-32v-80l-20-32-19-32-32-17-32-16-41 5-41 6-31 34-31 34-7 37-7 37 20 42 20 42 28 17 28 17 33 1h33l30-15zm289-12 21-27-6-26c-4-14-13-33-22-42l-15-17-57-3-56-3-3-62-3-63h-29v270h149l21-27zm150 12c0-8-4-15-10-15h-10v-210h10c6 0 10-7 10-16v-15l-42 3-41 3-5 13-4 12h32v208l-16 6-15 6 6 10 6 10h79v-15zm271-24 39-39 1-28c3-79-11-112-64-144l-32-20h-28c-15 0-41 7-58 15l-30 16-19 32-20 32v93l27 32c31 38 55 49 107 49l38 1 39-39zm212-82c53-66 97-127 97-135v-14h-25l-75 95c-41 52-78 95-82 95h-8v-180h-30v123c0 115 3 137 20 137 3 0 50-54 103-121zm105 27 3-88-18 4-18 3-3 74c-2 41 0 81 3 88l5 15 13-4 12-5 3-87zm262 80v-15l-42-3-43-3-3-117-3-118h-13c-21 0-26 24-26 136v104h-90v30h220v-14zm200-1v-14l-57-3-58-3v-80l58-5 57-5v-20l-57-5-58-5-3-37-3-37 58-3 58-3 3-17 3-18h-151v270h150v-15zm-2135-25 15-30-37-23c-21-13-68-40-105-61l-67-37-16 32-17 31 10 10c16 16 176 108 189 108h12l16-30zm2384 16 12-14-11-7-10-6-31 6-30 7-29-12-29-12-16-35-17-35 7-25c3-13 17-36 30-49l24-24h36c20 0 45 5 55 10l19 10 7-12 7-11-23-19-22-18h-73l-32 20-32 19-17 32-16 32 5 46 5 45 36 33 36 33h98l11-14zm-2004-96 15-29-22-14c-42-26-143-84-165-96l-22-11-17 31-16 31 11 11c17 17 174 106 188 106l12 1 16-30zm-385-160v-120h-80v240h80v-120zm914 78c36-41 40-58 19-65l-11-4-36 47-36 46 6 9c10 16 22 9 58-33zm-746-85c53-31 98-57 100-59 6-4-28-64-37-64s-181 97-194 110l-9 8 16 31c9 17 19 31 22 31s49-25 102-57zm-290 10 3-33-26-12-26-12-21 22-22 21 12 26 12 26 33-3 32-3 3-32zm500 0 3-33-26-12-26-12-21 22-22 21 12 26 12 26 33-3 32-3 3-32zm-260-115c29-29 7-78-35-78h-22l-11 19c-14 27-13 37 6 55 18 19 45 21 62 4zm408 321-26-31v-66l26-31 26-31h74l21 15 21 15 12 36 12 35-12 30c-7 16-22 36-34 44l-20 15h-74l-26-31zm278 27c-3-8-4-25-2-38l3-23 18-3c11-2 34-1 52 2l34 7 7 21 6 21-18 14-18 13h-77l-5-14zm409-20-28-24v-94l28-24 28-24h68l26 23 26 22 6 41 5 40-27 32-27 32h-77l-28-24z"/></g><g fill="#2f2f30" transform="matrix(.1 0 0 -.1 0 300)"><path d="M0 1500V0h3000v3000H0V1500zm504 274c9-8 16-21 16-28 0-17-21-42-41-49l-17-5-21 14-21 15v23c0 28 18 46 46 46h23l15-16zm-72-100c54-30 98-60 98-66 0-5-9-23-20-38l-20-28-103 59c-56 33-102 63-102 67 1 17 29 62 38 62 6 0 55-25 109-56zm206-76-3-123h-80l-3 109c-1 61 0 116 2 123l5 13h82l-3-122zm-388 32c24-24 24-29 4-58l-15-22h-19c-24 0-50 26-50 50 0 22 26 50 46 50 8 0 23-9 34-20zm500 0c25-25 25-42 0-65l-21-19-27 10-27 9-3 24-4 23 18 19c22 24 39 24 64-1zm545-44 34-15 7-25 6-26-6-25-6-24-22-12-22-12-48 2-48 1v-121l-15-6-16-5-7 7-7 7v120c0 66 2 124 5 128 3 5 28 10 55 13 28 2 51 4 53 5 1 1 18-4 37-12zm174 0 11-13-15-13-15-12v-186l15-12 15-12-6-9-5-9h-89v31l15 5 15 6v189l-15 5c-18 7-20 30-2 37 6 3 24 6 38 6l27 1 11-14zm1050 1 11-14-7-6c-3-4-30-7-60-7h-53v-80h111l6-15c8-23-2-28-44-27-21 1-46-1-55-4l-18-5v-68l58-3 57-3v-30l-76-3-76-3-5 19c-8 28-3 236 6 250l7 12h127l11-13zm-2132-32c9-19 15-36 12-38-2-2-48-30-103-62l-98-59-15 20c-8 10-19 27-24 36l-9 17 47 27c27 15 73 42 103 60 30 19 58 34 63 34 4 0 15-16 24-35zm653 18c35-24 48-43 60-83l10-36-10-36-10-36-36-31-35-31h-84l-31 19-31 19-16 35c-21 43-21 77-3 121l14 33 27 21 28 22h93l24-17zm686-2 31-19 16-35c9-19 17-47 17-62v-27l-21-38-21-37-28-16-28-17h-74l-28 16c-15 9-35 30-45 47l-18 31v83l21 35c26 42 53 56 107 57l40 1 31-19zm234-106 101-125-6-10c-3-6-12-10-19-10h-13l-76 96-77 97v-168l-9-14-9-14-11 7-11 7v259h29l101-125zm98 33-3-93h-30l-3 93-3 92h42l-3-92zm265 85 7-6-11-14-11-13h-67l-3-112-3-113h-40l-3 112-3 112-42 3-42 3-3 18-3 17h109c60 0 112-3 115-7zm426-4 32-11-3-17-3-16-52 3-52 4-26-26-25-25v-78l27-27 27-28 36 5c19 3 45 8 58 12l22 7v-41l-19-11-20-10h-93l-39 39-39 39v97l19 31 18 30 34 17c40 20 56 21 98 6zM765 1475c11-19 17-36 15-39-3-2-49-30-103-61l-97-56-10 6c-6 4-17 19-25 35l-15 29 103 60c56 33 105 61 108 61s14-16 24-35zm-387-167-3-123-37-3-38-3v251h81l-3-122zm920 82c17-21 32-46 32-54v-16h-29l-35 44c-20 23-36 48-36 55v11h35l33-40zm-1048-50c24-24 24-29 4-58l-15-22h-19c-24 0-50 26-50 50 0 22 26 50 46 50 8 0 23-9 34-20zm302-36c54-30 98-59 98-64 0-13-34-70-41-67-3 1-51 29-106 61l-101 59 16 33c9 19 20 34 26 34 5 0 54-25 108-56zm198 36c25-25 25-42 0-65l-19-17-25 6-26 6-6 27-7 26 23 19c28 23 35 23 60-2zm-254-138c6-4 13-15 17-25l7-18-10-20-11-19h-55l-12 12c-15 15-15 51 0 66 13 13 47 16 64 4zm694 318v-30h89l9 18c5 9 7 23 5 30l-5 12h-98v-30zm-275 8-26-23-5-35-5-35 20-32 20-32 26-7 25-6 25 6c13 3 34 16 45 28l20 22v83l-26 27-27 26h-66l-26-22zm688 7-21-15-12-35-11-34 16-34 16-34 25-12c34-15 60-14 89 5l24 16 11 34 12 35-12 30c-7 16-22 36-34 44l-20 15h-62l-21-15z"/></g><g fill="#010102" transform="matrix(.1 0 0 -.1 0 300)"><path d="M0 1500V0h3000v3000H0V1500zm498 284 22-15v-46l-20-18-21-19-27 10-27 9-3 31-3 31 16 17c20 20 35 20 63 0zm-39-121c42-25 77-46 79-48 4-4-39-75-46-75-13 0-205 115-209 125-1 6 6 25 17 43l20 33 31-17c17-8 66-36 108-61zm181-63v-130h-90v123c0 68 3 127 7 130 3 4 24 7 45 7h38v-130zm-386 34 16-15v-23c0-12-5-27-12-34l-12-12h-56l-16 25-16 25 16 25 16 25h49l15-16zm500 0 16-15v-23c0-29-18-46-50-46-14 0-31 5-38 12-15 15-15 61 0 76 7 7 22 12 34 12h23l15-16zm258-44 38-11 24-32c13-18 28-44 31-60l7-27-6-35-7-35-35-34-35-34-32-5c-17-2-45 0-62 4l-31 9-28 29-29 30-5 52-5 52 18 33 18 33 41 21c47 23 49 23 98 10zm307-14 21-19v-76l-26-20-27-21h-97v-118l-14-5-14-5-11 11-11 11v253l8 7 7 8 72-4 71-3 21-19zm158 8 6-17-16-12-17-12v-176l17-12 16-12-6-17-6-16h-82l-6 16-6 17 16 12 17 12v176l-17 12-16 12 6 17 6 16h82l6-16zm250-9c13-9 33-30 43-48l20-32v-80l-20-32c-10-18-31-40-45-49l-27-17h-89l-27 20c-15 10-35 35-45 54l-18 34 4 44 5 43 19 27c11 14 35 34 54 44l34 18 34-5c18-3 44-12 58-21zm237-110c53-66 96-125 96-131 0-7-7-14-15-18l-14-5-13 13c-7 7-42 49-78 94l-65 81-3-85-3-85-15-6-16-6-9 14-9 14v231l12 12 11 11 13-7c6-4 55-61 108-127zm98 21-4-87-16 3-17 3-3 89-3 89 13 8 13 9 10-14 10-13-3-87zm263 89v-20l-42-3-43-3v-227l-16-6c-9-3-20-4-25 0l-9 5v229h-88l-5 14-5 14 11 11 12 12 105-3 105-3v-20zm200 0v-20l-57-3-58-3v-68l58-3 57-3v-40l-57-3-58-3v-69h111l6-16 6-16-14-9-14-9h-121l-12 12-12 12v253l7 7 7 7 76-3 75-3v-20zm-2135-17c11-18 20-35 20-38 0-9-198-120-213-120h-14l-19 36-19 37 10 4c6 2 50 28 100 57 50 30 96 55 103 55l12 1 20-32zm2375 18 18-13-6-17-6-16-41 6-41 7-23-13c-27-14-46-50-46-84v-23l20-26 20-25 26-6 25-7 35 13 35 12 9-14c12-19 4-29-37-46l-34-15-35 7-36 7-32 32-33 33-7 32-6 33 10 36 10 37 27 26c34 31 47 36 94 37l35 1 19-14zm-1995-98 20-32-9-9c-5-5-53-36-107-68l-98-58-12 10c-13 11-39 68-33 73 15 13 197 115 207 115l12 1 20-32zm-390-169v-130l-42 3-43 3-3 114c-1 63 0 121 2 128l5 13h81v-131zm925 75 38-46-16-15-15-16-41 44-41 44v35h38l37-46zm-730-89c44-26 82-49 84-51 5-4-39-74-47-74-13 0-205 115-209 125-1 6 6 25 17 43l20 33 28-15c15-8 63-35 107-61zm-321 49 16-15v-23c0-12-5-27-12-34l-12-12h-56l-16 25-16 25 16 25 16 25h49l15-16zm500 0 16-15v-23c0-29-18-46-50-46-14 0-31 5-38 12-15 15-15 61 0 76 7 7 22 12 34 12h23l15-16zm-254-144 20-20v-37l-20-18-21-19-27 10-27 9-3 34-3 33 18 14c25 19 40 17 63-6zm435 339c-11-6-26-19-32-27l-13-16v-40l1-41 13-17c7-10 25-22 40-28l27-10 25 6 24 6 20 25 20 26v66l-22 25-23 26-30 5-30 5-20-11zm255-19v-31l48 3 47 3v50l-47 3-48 3v-31zm409 1-29-29v-71l24-27 23-28h72l26 24 25 23v85l-31 26-31 26h-50l-29-29z"/></g></g></svg>